<?xml version="1.0" encoding="UTF-8"?>
<svg width="9px" height="16px" viewBox="0 0 9 16" version="1.1" xmlns="http://www.w3.org/2000/svg" xmlns:xlink="http://www.w3.org/1999/xlink">
    <!-- Generator: Sketch 48.2 (47327) - http://www.bohemiancoding.com/sketch -->
    <title></title>
    <desc>Created with Sketch.</desc>
    <defs></defs>
    <g id="HGMD" stroke="none" stroke-width="1" fill="none" fill-rule="evenodd">
        <path d="M1,15.796875 C0.947916406,15.796875 0.898437734,15.7864584 0.8515625,15.765625 C0.804687266,15.7447916 0.760416875,15.7187502 0.71875,15.6875 C0.63541625,15.6041662 0.59375,15.507813 0.59375,15.3984375 C0.59375,15.289062 0.63541625,15.1927088 0.71875,15.109375 L7.640625,8.203125 L0.71875,1.28125 C0.63541625,1.20833297 0.59375,1.11458391 0.59375,1 C0.59375,0.885416094 0.63541625,0.791667031 0.71875,0.71875 C0.791667031,0.63541625 0.885416094,0.59375 1,0.59375 C1.11458391,0.59375 1.20833297,0.63541625 1.28125,0.71875 L8.484375,7.921875 C8.55729203,7.99479203 8.59375,8.08593695 8.59375,8.1953125 C8.59375,8.30468805 8.55729203,8.40104125 8.484375,8.484375 L1.28125,15.6875 C1.23958313,15.7187502 1.19531273,15.7447916 1.1484375,15.765625 C1.10156227,15.7864584 1.05208359,15.796875 1,15.796875 Z" id="" fill="#000000"></path>
    </g>
</svg>