<?xml version="1.0" encoding="UTF-8"?>
<svg width="9px" height="16px" viewBox="0 0 9 16" version="1.1" xmlns="http://www.w3.org/2000/svg" xmlns:xlink="http://www.w3.org/1999/xlink">
    <!-- Generator: Sketch 48.2 (47327) - http://www.bohemiancoding.com/sketch -->
    <title></title>
    <desc>Created with Sketch.</desc>
    <defs></defs>
    <g id="HGMD" stroke="none" stroke-width="1" fill="none" fill-rule="evenodd">
        <path d="M8.203125,15.796875 C8.15104141,15.796875 8.09895859,15.7864584 8.046875,15.765625 C7.99479141,15.7447916 7.95312516,15.7187502 7.921875,15.6875 L0.71875,8.484375 C0.63541625,8.40104125 0.59375,8.30468805 0.59375,8.1953125 C0.59375,8.08593695 0.63541625,7.99479203 0.71875,7.921875 L7.921875,0.71875 C7.99479203,0.63541625 8.08593695,0.59375 8.1953125,0.59375 C8.30468805,0.59375 8.40104125,0.63541625 8.484375,0.71875 C8.55729203,0.791667031 8.59375,0.885416094 8.59375,1 C8.59375,1.11458391 8.55729203,1.20833297 8.484375,1.28125 L1.5625,8.203125 L8.484375,15.109375 C8.55729203,15.1927088 8.59375,15.289062 8.59375,15.3984375 C8.59375,15.507813 8.55729203,15.6041662 8.484375,15.6875 C8.44270813,15.7187502 8.39843773,15.7447916 8.3515625,15.765625 C8.30468727,15.7864584 8.25520859,15.796875 8.203125,15.796875 Z" id="" fill="#000000"></path>
    </g>
</svg>