<?xml version="1.0" encoding="UTF-8"?>
<svg width="14px" height="13px" viewBox="0 0 14 13" version="1.1" xmlns="http://www.w3.org/2000/svg" xmlns:xlink="http://www.w3.org/1999/xlink">
    <!-- Generator: Sketch 48.2 (47327) - http://www.bohemiancoding.com/sketch -->
    <title></title>
    <desc>Created with Sketch.</desc>
    <defs></defs>
    <g id="Dashboard" stroke="none" stroke-width="1" fill="none" fill-rule="evenodd">
        <path d="M7.703125,6.50390625 L13.3476562,12.1484375 C13.4518234,12.2395838 13.5039062,12.3567701 13.5039062,12.5 C13.5039062,12.6432299 13.4518234,12.7604162 13.3476562,12.8515625 C13.3085936,12.9036461 13.2565107,12.9427082 13.1914062,12.96875 C13.1263018,12.9947918 13.0611982,13.0078125 12.9960938,13.0078125 C12.9309893,13.0078125 12.8691409,12.9947918 12.8105469,12.96875 C12.7519528,12.9427082 12.6966148,12.9036461 12.6445312,12.8515625 L7,7.20703125 L1.35546875,12.8515625 C1.30338516,12.9036461 1.24804717,12.9427082 1.18945312,12.96875 C1.13085908,12.9947918 1.06901074,13.0078125 1.00390625,13.0078125 C0.938801758,13.0078125 0.873698242,12.9947918 0.80859375,12.96875 C0.743489258,12.9427082 0.691406445,12.9036461 0.65234375,12.8515625 C0.548176562,12.7604162 0.49609375,12.6432299 0.49609375,12.5 C0.49609375,12.3567701 0.548176562,12.2395838 0.65234375,12.1484375 L6.296875,6.50390625 L0.65234375,0.859375 C0.548176562,0.755207813 0.49609375,0.634766309 0.49609375,0.498046875 C0.49609375,0.361327441 0.548176562,0.240885937 0.65234375,0.13671875 C0.743490039,0.0455724609 0.857421191,0 0.994140625,0 C1.13086006,0 1.25130156,0.0455724609 1.35546875,0.13671875 L7,5.80078125 L12.6445312,0.13671875 C12.7486984,0.0455724609 12.8691399,0 13.0058594,0 C13.1425788,0 13.25651,0.0455724609 13.3476562,0.13671875 C13.4518234,0.240885937 13.5039062,0.361327441 13.5039062,0.498046875 C13.5039062,0.634766309 13.4518234,0.755207813 13.3476562,0.859375 L7.703125,6.50390625 Z" id="" fill="#000000"></path>
    </g>
</svg>